<svg xmlns="http://www.w3.org/2000/svg" data-name="Layer 1" viewBox="0 0 88.05 113.9875" x="0px" y="0px"><path d="m88.05,42.81h-39.92v-.31c0-.94.02-1.89,0-2.83,0-.31.09-.42.37-.52,4.9-1.62,9.34-4.07,13.2-7.5,5.45-4.83,9.05-10.75,10.47-17.94.14-.69.25-1.39.37-2.09-.06,0-.08-.02-.09-.01-2.89.61-5.71,1.41-8.41,2.63-5.27,2.38-9.72,5.8-13.18,10.47-1.45,1.96-2.63,4.07-3.54,6.33-.06.16-.12.31-.33.19-.02-.12-.04-.22-.05-.33-.27-2.24-.75-4.44-1.5-6.58-3.41-9.7-9.88-16.6-19.16-20.91C21.39,1.15,16.21.1,10.84,0c-.42,0-.84,0-1.26,0,0,.05,0,.09,0,.13.56,3.51,1.47,6.93,2.85,10.21,3.24,7.7,8.29,14,14.87,19.09,5.45,4.22,11.53,7.21,18.13,9.16.1.03.2.07.28.09v4.13H0v2.41h45.72c0,1.4,0,2.75,0,4.1,0,.2-.06.33-.19.47-1.3,1.29-2.6,2.59-3.89,3.89-.15.15-.29.2-.5.2-3.27,0-6.54,0-9.81,0-.2,0-.33.05-.47.2-1.66,1.74-3.33,3.47-5,5.21-.17.18-.34.26-.59.26-3.84-.07-7.68-.14-11.52-.2-.47,0-.94,0-1.41,0-.04-.14-.06-.23-.09-.31-.5-1.68-2.14-2.75-3.86-2.51-1.68.23-2.92,1.53-3.09,3.24-.15,1.54.84,3.08,2.34,3.62,1.55.56,3.28-.02,4.17-1.4.13-.21.27-.27.5-.26,4.65.09,9.3.16,13.95.25.27,0,.44-.08.62-.27,1.66-1.74,3.33-3.47,5-5.21.14-.14.27-.2.47-.2,2.11,0,4.21,0,6.32,0,.09,0,.19,0,.32.02-.1.11-.17.18-.23.25-2.93,2.94-5.87,5.87-8.8,8.81-.17.17-.3.21-.54.11-2.33-.94-4.91.81-4.86,3.31.03,1.51.76,2.64,2.15,3.23,1.38.59,2.69.37,3.8-.65,1.1-1.02,1.39-2.3.95-3.74-.07-.23-.03-.36.13-.52,2.94-2.93,5.87-5.87,8.81-8.8.07-.07.14-.13.26-.24v.34c0,2.04,0,4.07,0,6.11,0,.22-.06.37-.21.53-3.5,3.87-7,7.75-10.51,11.62-.09.1-.27.18-.4.18-2.48.04-4.95.07-7.43.12-.23,0-.35-.06-.45-.27-.69-1.43-2.26-2.21-3.79-1.93-1.7.32-2.91,1.75-2.93,3.47-.02,1.69,1.17,3.16,2.85,3.5,1.66.34,3.32-.54,3.98-2.13.08-.19.18-.24.37-.24,2.81-.03,5.61-.07,8.42-.1.22,0,.37-.07.51-.23,3.93-4.36,7.86-8.71,11.79-13.06.14-.16.21-.31.21-.53,0-3.17,0-6.34,0-9.5,0-.21.05-.35.2-.5.74-.72,1.46-1.46,2.19-2.19.07-.07.14-.13.25-.23,0,.1.01.16.01.21,0,4.62,0,9.24,0,13.87,0,.12-.07.27-.15.37-1.28,1.52-2.57,3.02-3.85,4.54-.11.13-.19.31-.2.47-.01,2.87-.01,5.73,0,8.6,0,.13.06.3.14.4,1.12,1.35,2.24,2.7,3.37,4.04.14.17.16.29.06.49-1,2,.06,4.39,2.21,5,.23.07.47.1.7.15h.54c.06-.02.11-.04.17-.05,2.08-.29,3.43-2.19,3.02-4.25-.39-1.98-2.41-3.22-4.39-2.69-.2.05-.3.01-.43-.14-.94-1.14-1.89-2.26-2.83-3.4-.1-.12-.17-.32-.17-.48-.01-1.96.03-3.91-.03-5.86-.03-.83.18-1.46.76-2.06.85-.89,1.61-1.86,2.42-2.81.35.33.6.65.58,1.18-.07,2.48-.09,4.95-.12,7.43,0,.12,0,.23,0,.37h2.39c0-.05.01-.1.02-.15.04-2.96.08-5.91.12-8.87,0-.12-.05-.25-.13-.34-.54-.65-1.09-1.28-1.62-1.94-.09-.11-.16-.28-.16-.42,0-2.96,0-5.92,0-8.87,0-.07.01-.14.03-.25.55.55,1.08,1.06,1.58,1.59.11.11.19.31.19.46.01,1.75,0,3.51.02,5.26,0,.16.08.35.18.47.88.94,1.78,1.88,2.68,2.8.16.17.19.29.1.52-.47,1.26-.31,2.45.53,3.51.83,1.05,1.96,1.49,3.28,1.29,1.43-.21,2.42-1.05,2.86-2.43.43-1.37.13-2.62-.91-3.61-1.04-1.01-2.29-1.25-3.67-.79-.17.06-.28.05-.42-.09-.69-.74-1.4-1.46-2.1-2.2-.06-.07-.14-.16-.14-.25-.01-.76,0-1.52,0-2.36.91.91,1.75,1.76,2.57,2.58.58-.58,1.13-1.13,1.72-1.71-1.72-1.72-3.46-3.46-5.21-5.21.06-.01.08-.03.11-.03,1.38,0,2.77,0,4.15,0,.12,0,.26.09.35.17,1.74,1.66,3.48,3.32,5.22,4.98.58.55,1.16,1.11,1.74,1.67-.36.67-.5,1.37-.44,2.13.19,2.01,2.05,3.44,4.12,3.13,1.92-.28,3.29-2.24,2.9-4.16-.42-2.08-2.44-3.31-4.48-2.75-.1.03-.27.05-.33,0-.46-.41-.9-.84-1.41-1.33h.37c3.6,0,7.2,0,10.8,0,.24,0,.36.06.47.29.76,1.59,2.57,2.36,4.25,1.83,1.68-.53,2.72-2.21,2.45-3.94-.26-1.59-1.52-2.79-3.15-2.98-1.5-.18-3.02.71-3.63,2.14-.08.18-.15.26-.36.26-4.49,0-8.98,0-13.48-.01-.14,0-.31-.07-.41-.17-1.22-1.15-2.43-2.31-3.63-3.47-.16-.15-.31-.21-.53-.21-2.24,0-4.47-.02-6.71.02-.6.01-1.05-.12-1.43-.59-.15-.19-.24-.36-.24-.61,0-2.73,0-5.45,0-8.18v-.39h39.92v-2.41Zm-39.47-7.97c1.63-5.92,5.01-10.66,9.81-14.43,3.25-2.55,6.9-4.35,10.86-5.52.05-.01.1-.03.19-.05-.02.11-.03.19-.05.27-1.27,4.8-3.66,8.97-7.05,12.58-3.88,4.14-8.56,7.05-13.88,8.95-.08.03-.16.05-.32.09.16-.66.28-1.28.45-1.88Zm-3.82.79c0,.06,0,.12-.01.22-.12-.03-.22-.05-.31-.08-6.51-2.15-12.44-5.36-17.65-9.85-6.29-5.42-10.87-11.99-13.39-19.95-.33-1.05-.58-2.12-.87-3.19-.03-.09-.03-.19-.05-.33.71.06,1.4.11,2.08.19,3.25.38,6.41,1.13,9.43,2.4,9.09,3.81,15.54,10.23,18.98,19.53,1.32,3.56,1.88,7.26,1.79,11.06ZM8.85,61.18c-.63,0-1.15-.52-1.15-1.15,0-.62.52-1.13,1.13-1.14.63,0,1.15.51,1.15,1.14,0,.64-.5,1.14-1.14,1.14Zm19.25,8.74c-.62,0-1.13-.51-1.13-1.13,0-.62.52-1.15,1.14-1.15.63,0,1.14.51,1.14,1.15,0,.64-.51,1.14-1.15,1.13Zm-9.63,9.51c-.62,0-1.12-.51-1.13-1.13,0-.63.52-1.15,1.15-1.15.63,0,1.14.52,1.14,1.15,0,.64-.52,1.14-1.16,1.13Zm29.8,7.06c.64,0,1.13.51,1.12,1.16,0,.62-.52,1.12-1.14,1.13-.62,0-1.15-.53-1.15-1.15,0-.63.52-1.14,1.16-1.13Zm7.92-17.66c.63,0,1.15.51,1.15,1.15,0,.64-.5,1.14-1.14,1.14-.63,0-1.15-.52-1.14-1.15.01-.61.52-1.13,1.14-1.13Zm9.89-3.99c.64,0,1.14.51,1.14,1.15,0,.64-.52,1.15-1.15,1.14-.62,0-1.12-.52-1.13-1.14,0-.63.51-1.15,1.14-1.15Zm12.07-6.01c.64,0,1.15.49,1.16,1.13,0,.64-.5,1.15-1.14,1.15-.63,0-1.15-.52-1.15-1.15,0-.62.51-1.13,1.13-1.14Z"/><path d="m70.57,54.32c0,.52.43.96.96.95.52,0,.93-.43.92-.95,0-.52-.41-.93-.94-.93-.52,0-.94.41-.95.93Z"/><path d="m66.34,73.39c-.51,0-.94.42-.95.93,0,.53.42.96.95.95.52,0,.93-.42.93-.94,0-.52-.42-.94-.93-.94Z"/><path d="m55.24,52.26c-.02.52.42.96.94.96.51,0,.94-.42.94-.93,0-.52-.4-.94-.92-.94-.52,0-.94.4-.96.91Z"/><path d="m74.55,70.82c-.52,0-.93.42-.93.94,0,.52.42.94.93.94.52,0,.96-.44.95-.96,0-.51-.44-.93-.95-.93Z"/><path d="m15.38,68.79c0-.51-.41-.94-.93-.94-.53,0-.97.42-.96.94,0,.51.43.93.94.93.52,0,.94-.42.94-.93Z"/><path d="m21,48.78c0-.52-.42-.93-.94-.92-.52,0-.93.41-.93.93,0,.53.43.96.96.95.51-.01.92-.44.92-.96Z"/><path d="m29.29,52.27c0-.52-.43-.92-.95-.92-.52,0-.93.41-.93.94,0,.52.41.94.93.94.52,0,.96-.44.95-.96Z"/><path d="m37.95,77.35c-.53-.01-.95.37-.97.89-.02.53.37.96.89.98.53.02.98-.39.99-.91.01-.51-.4-.95-.91-.96Z"/><path d="m24.43,81.21c-.51,0-.93.42-.94.94,0,.52.41.94.93.94.52,0,.94-.4.96-.92.01-.52-.43-.96-.95-.96Z"/><text x="0" y="106.19" fill="#000000" font-size="5px" font-weight="bold" font-family="'Helvetica Neue', Helvetica, Arial-Unicode, Arial, Sans-serif">Created by Kyle McMillan</text><text x="0" y="111.19" fill="#000000" font-size="5px" font-weight="bold" font-family="'Helvetica Neue', Helvetica, Arial-Unicode, Arial, Sans-serif">from the Noun Project</text></svg>