<svg height='100px' width='100px'  fill="#000000" xmlns="http://www.w3.org/2000/svg" viewBox="0 0 28.85 29.47" x="0px" y="0px"><title>Timeline_1</title><g data-name="Layer 2"><g data-name="Layer 1"><path d="M25.31,23.88a1,1,0,0,1,.13.47.93.93,0,1,1-.92-.92.84.84,0,0,1,.35.07,13.84,13.84,0,1,0-20.53.4A1.43,1.43,0,0,1,4.8,23a.92.92,0,0,0,0-1.26,12.4,12.4,0,0,1-1.31-2.14A.92.92,0,0,1,2.88,18a12.24,12.24,0,0,1,.53-8.49.94.94,0,0,1-.24-.62.93.93,0,0,1,1.08-.91,10.27,10.27,0,0,1,.72-1H5l0,0c.28-.35.59-.69.91-1a12,12,0,0,1,9.7-3.47.92.92,0,0,1,1.77.3,12.07,12.07,0,0,1,6.38,19.38,1,1,0,0,1,.13.48.92.92,0,1,1-.92-.92.8.8,0,0,1,.34.07A11.48,11.48,0,0,0,17.21,3.27a.94.94,0,0,1-.77.41.92.92,0,0,1-.89-.7A11.45,11.45,0,0,0,6.89,5.75a1.42,1.42,0,0,1,.88.49,1,1,0,0,0,1.28.09c.2-.14.4-.26.61-.38a.61.61,0,0,1,0-.14.92.92,0,0,1,.92-.92,1,1,0,0,1,.71.34,9.53,9.53,0,0,1,3.14-.52,9.65,9.65,0,0,1,6.87,2.84,8.72,8.72,0,0,1,.64.71.92.92,0,0,1,1,1.43l.15.28v0l0,.08a7.19,7.19,0,0,1,.34.75l0,.07A9.77,9.77,0,0,1,22,20.52a1,1,0,0,1,.13.48.92.92,0,1,1-.92-.93,1,1,0,0,1,.35.07A9.1,9.1,0,0,0,23.24,12a1.53,1.53,0,0,1-.87.54,1,1,0,0,0-.63,1.1l0,.28,0-.06,0,.23c0,.1,0,.2,0,.3a7.36,7.36,0,0,1-1.49,4.43.87.87,0,0,1,.17.52.93.93,0,1,1-.93-.92.94.94,0,0,1,.3.05A6.75,6.75,0,0,0,21,15.88,1.41,1.41,0,0,1,20,16c-.31-.09-.76.08-1.08.62h0l-.33.56a.93.93,0,0,1,.16.51.92.92,0,1,1-.92-.92,1,1,0,0,1,.3,0l.26-.43a2.15,2.15,0,0,1,.66-.74,1.3,1.3,0,0,1,1.1-.21.86.86,0,0,0,1.05-.63c0-.1,0-.25,0-.4a5.48,5.48,0,0,0,0-.7A1.56,1.56,0,0,1,22.24,12a.89.89,0,0,0,.61-.43.67.67,0,0,0,0-.57,10.63,10.63,0,0,0-.46-1,.87.87,0,0,1-.28.05.93.93,0,0,1-.92-.93.9.9,0,0,1,.2-.57A8.24,8.24,0,0,0,20.88,8a9.16,9.16,0,0,0-9.39-2.19v0a.93.93,0,0,1-.92.93.91.91,0,0,1-.65-.27c-.18.11-.37.22-.54.34a1.85,1.85,0,0,1-1.05.29,1.41,1.41,0,0,1-1-.48.91.91,0,0,0-.61-.31.92.92,0,0,0-.64.21l0,0A12,12,0,0,0,4.76,8.2.93.93,0,0,1,5,8.84a.92.92,0,0,1-1.09.9,11.71,11.71,0,0,0-.49,8,.92.92,0,0,1,.91.92,1,1,0,0,1-.29.67,12.1,12.1,0,0,0,1.25,2,1.51,1.51,0,0,1-.11,2.05.9.9,0,0,0-.06,1.24,13.81,13.81,0,0,0,8.72,3.57.93.93,0,0,1,.87-.62.92.92,0,1,1-.88,1.2,14.37,14.37,0,0,1-9.09-3.71l0,0-.5-.47A14.56,14.56,0,0,1,1.13,20a14.52,14.52,0,0,1,0-11.23A14.44,14.44,0,0,1,20,1.13a14.19,14.19,0,0,1,4.58,3.09A14.09,14.09,0,0,1,27.71,8.8a14.41,14.41,0,0,1-2.4,15.08Z"></path></g></g></svg>