<svg xmlns="http://www.w3.org/2000/svg" xmlns:xlink="http://www.w3.org/1999/xlink" xml:space="preserve" version="1.1" style="shape-rendering:geometricPrecision;text-rendering:geometricPrecision;image-rendering:optimizeQuality;" viewBox="0 0 50000 62500" x="0px" y="0px" fill-rule="evenodd" clip-rule="evenodd"><defs><style type="text/css">
   
    .fil0 {fill:black;fill-rule:nonzero}
   
  </style></defs><g><path class="fil0" d="M7417.3 13585.81l7119.69 -3877.69c-77.46,-697.38 842.96,-1009.02 1212.92,-426.86 2426.81,-436.96 4853.69,-873.54 7280.59,-1310.03 186.2,-659.35 1143.78,-626.22 1281.41,46.82 2332.46,435.31 4664.97,870.41 6997.31,1306.38 364.18,-564.39 1257.21,-281.09 1213.13,400.22 1961.82,956.35 3923.31,1913.46 5884.66,2870.74 504.71,-450.49 1282.93,68.75 1063.15,707.13 1535.26,1342.94 3070.15,2686.32 4605.14,4029.58 646.99,-325.06 1279.05,498.61 780.12,1037.84l2833.3 6059.59c740.75,62.99 817.08,1125.24 98.75,1298.67 -566.94,1424.27 -1133.79,2848.58 -1701.06,4272.72 124.73,120.03 202.36,288.66 202.36,475.44 0,416.46 -379.63,725.51 -784.72,647.92 -1278.77,2870.81 -2557.6,5741.61 -3836.31,8612.44 -1762.62,922.95 -3525.06,1846.24 -5287.91,2768.74 -2047.37,-187.29 -4094.69,-375.08 -6142.04,-562.6 -1678.76,-1060.77 -3357.66,-2121.34 -5036.37,-3182.2l-1037.04 -3619.13c-207.23,16.39 -408.5,-64.65 -546.52,-220.46l-2438.16 988.89c-154.16,636.69 -1050.1,677.53 -1264.52,60.99 -3028.6,-726.81 -6057.23,-1453.51 -9085.71,-2180.87 -432.73,474.69 -1238.14,106.45 -1140.04,-543.74 -2092.6,-1517.07 -4184.92,-3034.54 -6277.22,-4552.02 -747.66,345.09 -1328.88,-744.86 -610.64,-1168.12 -203.39,-1698.55 -406.61,-3397.12 -609.89,-5095.67 -783.9,-215.7 -543.48,-1409.25 272.58,-1288.82 1324.92,-2232.4 2649.97,-4464.72 3974.99,-6697.06 -393.58,-632.98 410.44,-1323.07 978.05,-858.84zm3593.13 12887.47l7749 3448.84c74.93,-111.2 182.83,-198.34 309.7,-247.39l356.44 -4094c-207.3,-34.59 -381.88,-165.84 -475.84,-345.84l-7933.62 1134.43c0.81,34.78 -1.05,69.48 -5.68,103.96zm7642.66 3728.58l-7749.02 -3448.85c-95.96,142.4 -246,245.35 -420.68,279.38l45.15 5680.38c177.81,52.39 324.37,177.65 405.14,341.21l7713.68 -2751.39c-0.58,-33.83 1.23,-67.16 5.73,-100.73zm25751.19 -11620.91c-11.01,0.54 -22.08,0.83 -33.22,0.83 -157.05,0 -301.27,-54.9 -414.55,-146.53l-1397.32 1090.98c114.9,202.2 113.82,454.75 -2.86,655.95l4624.13 4336.21 -2776.18 -5937.44zm-631.81 -381.19c-71.47,-153.78 -80.57,-332.42 -25.36,-492.68l-4381.59 -3833.88 2418.24 5350.09c192.27,-61.59 404.8,-31.28 572.06,82.53l1416.65 -1106.06zm3511.21 7447.44c-147.69,-92.03 -256.34,-240.81 -295.46,-415.83l-6910.74 -808.85c-63.35,175.99 -199.37,317.23 -371.87,387.62l759.2 4749.88c297.81,25.95 538.94,249.7 591.23,539.16l3938.4 195.86c78.31,-274.59 330.05,-476.01 629.2,-478.39l1660.04 -4169.45zm-292.58 -717.12c11.38,-46.66 27.71,-91.4 48.42,-133.58l-4687.93 -4396.05c-494.35,330.75 -1140.3,-115.88 -1010.04,-694.35l-3765.4 -1910.81c-58.29,72.6 -131.6,132.61 -215.24,175.3 672.62,1857.73 1345.07,3715.51 2017.56,5573.29 362.38,-42.73 692.94,216.56 733.68,581.06l6878.95 805.14zm-1959.86 5825.86c-23.82,-50.83 -41.37,-105.21 -51.61,-162.12l-3938.12 -195.85c-63.68,224.05 -242.78,399.5 -468.94,458.03l33.39 4523.82c43.31,6.99 85.22,18.19 125.27,33.17l4300.01 -4657.05zm-24492.17 4338.44c235.58,0.21 442.22,123.9 558.78,309.83l2355.19 -955.24c6.89,-132.33 52.8,-254.33 126.4,-354.75l-3878.05 -3274.95c-64.08,47.86 -137.17,84.32 -216.24,106.44l1053.92 4168.67zm-594.26 371.6c64.13,-131.87 170.91,-239.13 302.37,-303.94l-1068.08 -4224.39c-199.4,-39.17 -366.6,-168.16 -457.68,-343.11l-7671.47 2736.34 8894.86 2135.1zm-9997.3 -2649.34c81.64,-60.94 177.86,-103.38 282.48,-121.24l-45.39 -5673.44c-199.58,-53.73 -361.73,-198.73 -438.95,-387.51l-5961.21 1582.94c-7,37.28 -17.11,73.47 -30.09,108.25l6193.16 4491zm-6651.32 -5361.83c229.62,57.26 411.6,234.79 475.21,461.82l5926.94 -1577.42c13.54,-197.99 114.39,-372.01 264.37,-483.76l-1406.05 -3469.66c-346.65,63.52 -685.04,-156.72 -763.19,-503.1l-4784.44 64.65c-43.24,182.13 -162,335.01 -321.34,423.78l608.5 5083.69zm-402.75 -6058.31c55.66,73.51 96.26,159.05 117.25,252.03l4784.44 -64.66c97.14,-409.13 548.13,-620.83 922.86,-444.12l2314.29 -2418.44c-54.2,-118.45 -71.71,-250.93 -51.13,-379.38l-3719.59 -3639.32c-130.54,56.46 -278.03,68.9 -416.23,35.7l-3951.89 6658.19zm4762.16 -7373.2c20,180.19 -33.85,359.38 -150.95,498.35l3602.86 3525.96c217.85,-285.82 625.7,-344.54 914.44,-133.08l6174.12 -3928.26c-8.97,-165.8 43.6,-327.22 149.3,-455.52l-2880.79 -3294.79c-227.08,102.84 -495.91,67.85 -689.3,-90.35l-7119.68 3877.69zm8182.61 -4251.79c-22.29,105.65 -69.84,202 -136.06,282.38l2880.79 3294.78c308.47,-139.67 676.97,-21.02 845.7,275.48l5858.25 -1397.67c2.95,-192.9 88.67,-365.7 223.22,-484.48l-1734.04 -2940.57c-277.43,46.84 -553.94,-86.23 -689.68,-334.16l-7248.18 1304.24zm8382.16 -1263.49c-44.07,68.34 -100.44,127.98 -165.96,175.87l1719.52 2915.95c403.59,-109.06 811.37,181.62 831.6,604.92l4522.26 1180.17c91.83,-174.41 259.46,-302.66 459.09,-340.96l103.37 -2725.69c-238.2,-64.87 -422.79,-259.79 -472.67,-503.8l-6997.21 -1306.46zm8082.89 1665.9c-87.08,77.78 -194.94,132.76 -314.22,155.65l-103.37 2725.69c380.47,103.61 583.1,516.55 440.22,878.67l4290.8 2961.29c467.69,-427.06 1229.16,-4.01 1088.97,630.21l3766.54 1911.39c16.55,-20.44 34.29,-39.86 53.13,-58.17l-2550.93 -5643.63c-422.61,83.34 -814.55,-256.43 -786.58,-690.49l-5884.56 -2870.61zm-7535.94 24385.79l3902.97 2458.88c150.71,-108.06 339.94,-147.14 520.88,-108.99l1940.48 -4150.93c-143.68,-112.99 -239.23,-284.38 -250.99,-478.39l-10929.49 -1846.93c-12.24,55.35 -31.39,108.1 -56.57,157.27l3915.33 3306.45c468.8,-241.72 1016.93,142.22 957.39,662.64zm-240.95 437.43c-24.1,19.48 -49.59,37.29 -76.31,53.28l1008.28 3518.75 4575.49 2891 -943.65 -3246.24c-424.24,22.85 -759.13,-354.87 -685.68,-773.57l-3878.13 -2443.22zm6569.93 -16382.62l5305.36 -1232.37c0.05,-84.91 16.15,-166.09 45.41,-240.62l-4291.21 -2961.58c-425.94,387.63 -1118.44,76.66 -1103.48,-505.66l-4500.61 -1174.53c-24.74,56.87 -57.24,109.58 -96.19,156.78l3900.52 5606.09c297.52,-68.25 604.43,76.32 740.2,351.89zm5372.99 -940.76l-5305.36 1232.37c-0.03,46.87 -4.98,92.59 -14.3,136.69l7832.75 4697.49c34.51,-35.66 73,-67.44 114.76,-94.62l-2028.51 -5603.45c-254.07,3.18 -487.14,-140.77 -599.34,-368.48zm-5447.51 1641.09c-120.85,152.69 -307.79,250.66 -517.63,250.66l-1533.14 5678.4c140.08,54.31 257.01,155.06 331.86,283.38l9494.02 -1338.59c1.03,-66.89 12.01,-131.36 31.53,-192.01l-7806.64 -4681.84zm-812.29 181.32c-159.36,-79.69 -281.97,-221.97 -335.57,-394.62l-4890.07 364.47c-22.02,142.36 -89.55,269.66 -187.24,366.63l3770.88 5387.73c34.45,-8.87 69.99,-15.06 106.38,-18.27l1535.62 -5705.94zm-357.09 -693.51c25.52,-162.66 110.45,-305.59 231.89,-405.9l-3867.13 -5558.09c-325.28,146.45 -712.13,6.27 -866.77,-318.91l-5836.94 1391.36c7.33,125.85 -20.78,250.22 -82.38,360.38l4526.04 4549.84c361.61,-249.99 871.47,-79.62 1004.55,345.86l4890.74 -364.54zm-1550.35 6556.71l-3759.65 -5369.55c-333.31,112.23 -700.26,-58.26 -827.02,-389.99l-6281.55 771.73c-15.59,170.2 -95.79,321.68 -215.89,429.72l2138.21 3493.5c56.87,-15.98 -27.15,-24.54 178.81,-24.54 205.96,0 636.23,272.49 658.35,616.86l7994.37 600.12c32.45,-47.44 70.95,-90.43 114.37,-127.85zm12795.83 10392.26c144.55,308.7 28.1,681.06 -269.75,852.05l768.37 2558.13 3399.42 -7631.64c-1299.07,1407.4 -2598.48,2814.5 -3898.04,4221.46zm-556.73 937.95c-178.02,11 -351.28,-49.35 -483.66,-169.18 -1400.8,674.08 -2801.71,1347.94 -4202.67,2021.68 -30.6,202.78 -153.49,375.31 -324.52,473.43l911.68 3120.17 4955.6 -2594.75 -856.43 -2851.35zm-699.58 -617.99c-18.4,-304.43 173.47,-582.44 465.71,-671.61l-33.47 -4536.37c-202.17,-41.38 -370.62,-175.24 -459.3,-355.44l-7615.6 1734.67c-0.86,186.42 -79.01,354.57 -204.06,474.05l3009.71 5096.36c266.8,-83.78 558.94,10.06 727.08,235.44l4109.93 -1977.1zm-10379.73 964.63c116.1,91.31 200.81,220.75 235.25,369.45l4896.07 783.69c35.41,-85.01 88.06,-161.04 153.62,-223.68l-3009.69 -5096.37c-107.84,33.87 -224.18,39.3 -334.76,15.98l-1940.49 4150.93zm156.39 861.57c-58.92,96.76 -142.07,177.14 -240.99,232.78l1025.34 3527.26 5742.05 525.96 -900.69 -3082.53c-282.16,17.48 -543.88,-145.55 -651.72,-407.3 -1658.02,-265.25 -3316.01,-530.67 -4973.99,-796.17zm10128.8 -7681.01c0.18,-280.22 175.08,-519.55 421.64,-615.01l-758.34 -4744.57c-243.43,-16.85 -450.5,-165.74 -550.12,-375.55l-9469.34 1333.24c14.22,212.83 -74,417.79 -238.75,553.64l2235.63 5228.92c299.46,-70.34 609.28,75.34 744.89,353.74l7614.39 -1734.41zm-8816.66 1768.27c41.73,-99.62 107.18,-186.85 189.31,-254.58l-2235.63 -5228.92c-450.32,105.84 -865.35,-273.58 -805.54,-729.1l-7933.77 -590.12c-75.37,181.95 -229.79,322.81 -420.42,379.85l-357.86 4071.04c282.12,25.21 513.09,227.98 580.4,495.76l10983.51 1856.07zm-12054.99 -7039.48c-4.49,-193.22 74.82,-376.94 218.51,-506.2l-2138.2 -3493.5c-458.77,128.91 -905.44,-259.33 -830.64,-737.91l-4072 -1252.38c-238.94,197.86 -588.75,201.1 -831.32,7.83l-2269.34 2361.48c232.35,290.27 177.83,718.32 -121.53,941.36 576.25,1322.64 829.51,2147.12 1405.97,3469.67 284.68,-52.14 570.31,86.15 704.94,344.07l7933.61 -1134.42zm-6654.76 -6797.85c88.48,173.4 95.17,381.1 18.28,559.86l3998.81 1222.71c141.39,-200.06 379.61,-304.66 621.99,-274.28l1631.07 -5155.74c-85.52,-56.68 -157.07,-132.74 -208.35,-221.95l-6061.8 3869.4zm4920.32 1612.64c113.87,75.49 202.93,185.36 252.41,314.81l6281.56 -771.73c8.61,-93.94 36.9,-182.18 80.72,-260.56l-4526.04 -4549.84c-133.88,92.58 -296.44,131.77 -457.58,111.58l-1631.07 5155.74z"/></g><text x="0" y="50015" fill="#000000" font-size="5px" font-weight="bold" font-family="'Helvetica Neue', Helvetica, Arial-Unicode, Arial, Sans-serif">Created by Oleksandr Panasovskyi</text><text x="0" y="50020" fill="#000000" font-size="5px" font-weight="bold" font-family="'Helvetica Neue', Helvetica, Arial-Unicode, Arial, Sans-serif">from the Noun Project</text></svg>