<svg xmlns="http://www.w3.org/2000/svg" viewBox="0 0 960 1200" x="0px" y="0px"><g><path d="M399.785,440.107A80.108,80.108,0,1,0,479.893,360,80.2,80.2,0,0,0,399.785,440.107Zm140.215,0A60.108,60.108,0,1,1,479.893,380,60.175,60.175,0,0,1,540,440.107ZM99.893,570.215a80.108,80.108,0,1,0-80.108-80.108A80.2,80.2,0,0,0,99.893,570.215Zm0-140.215a60.108,60.108,0,1,1-60.108,60.107A60.175,60.175,0,0,1,99.893,430Zm760.214-20a80.108,80.108,0,1,0,80.108,80.107A80.2,80.2,0,0,0,860.107,410Zm0,140.215a60.108,60.108,0,1,1,60.108-60.108A60.175,60.175,0,0,1,860.107,550.215ZM880,610H858.189A60.131,60.131,0,0,0,800.3,654.213L782.362,720H690a39.97,39.97,0,0,0-34.619,60H629.053a9.947,9.947,0,0,0,.947-4.227V620.162a60.068,60.068,0,0,0-60-60H390a60.068,60.068,0,0,0-60,60V775.773a9.947,9.947,0,0,0,.947,4.227H304.619A39.97,39.97,0,0,0,270,720H177.638L159.7,654.213A60.132,60.132,0,0,0,101.81,610H80a60.068,60.068,0,0,0-60,60V850a10,10,0,0,0,20,0V670a40.045,40.045,0,0,1,40-40h21.81A40.088,40.088,0,0,1,140.4,659.475l19.952,73.156A10,10,0,0,0,170,740H270a20,20,0,0,1,0,40H134.415a9.988,9.988,0,0,1-9.487-6.838L99.487,696.838a10,10,0,0,0-18.974,6.324l25.442,76.324A29.935,29.935,0,0,0,120,796.3V850a10,10,0,0,0,10,10H830a10,10,0,0,0,10-10V796.3a29.945,29.945,0,0,0,14.046-16.809l25.441-76.324a10,10,0,1,0-18.974-6.324l-25.441,76.323A9.988,9.988,0,0,1,825.585,780H690a20,20,0,0,1,0-40H790a10,10,0,0,0,9.647-7.369L819.6,659.475A40.087,40.087,0,0,1,858.189,630H880a40.045,40.045,0,0,1,40,40V850a10,10,0,0,0,20,0V670A60.068,60.068,0,0,0,880,610ZM350,775.773V620.162a40.045,40.045,0,0,1,40-40H570a40.045,40.045,0,0,1,40,40V775.773a9.947,9.947,0,0,0,.947,4.227H570V650a10,10,0,0,0-20,0V780H410V650a10,10,0,0,0-20,0V780H349.053A9.947,9.947,0,0,0,350,775.773ZM820,800v40H140V800H820ZM810,190a90.1,90.1,0,0,0-90-90H240a90,90,0,0,0-12.99,179.065l-16.625,58.188a10,10,0,0,0,16.686,9.818L294.142,280H720A90.1,90.1,0,0,0,810,190ZM290,260a10,10,0,0,0-7.071,2.929l-42.712,42.712,9.4-32.894A10,10,0,0,0,240,260a70,70,0,0,1,0-140H720a70,70,0,0,1,0,140Z"/></g><text x="0" y="975" fill="#000000" font-size="5px" font-weight="bold" font-family="'Helvetica Neue', Helvetica, Arial-Unicode, Arial, Sans-serif">Created by Dooder</text><text x="0" y="980" fill="#000000" font-size="5px" font-weight="bold" font-family="'Helvetica Neue', Helvetica, Arial-Unicode, Arial, Sans-serif">from the Noun Project</text></svg>