<svg xmlns="http://www.w3.org/2000/svg" xmlns:xlink="http://www.w3.org/1999/xlink" xmlns:serif="http://www.serif.com/" viewBox="0 0 56 70" version="1.1" xml:space="preserve" style="" x="0px" y="0px" fill-rule="evenodd" clip-rule="evenodd" stroke-linejoin="round" stroke-miterlimit="2"><g transform="matrix(1,0,0,1,-84,-300)"><g transform="matrix(0.660164,0,0,0.660164,79.1843,283.975)"><path d="M23.974,46.258C21.908,46.258 20.232,47.935 20.232,50C20.232,52.065 21.908,53.742 23.974,53.742C26.039,53.742 27.715,52.065 27.715,50C27.715,47.935 26.039,46.258 23.974,46.258ZM23.974,47.742C25.22,47.742 26.232,48.754 26.232,50C26.232,51.246 25.22,52.258 23.974,52.258C22.727,52.258 21.715,51.246 21.715,50C21.715,48.754 22.727,47.742 23.974,47.742Z"/></g><g transform="matrix(0.616806,0,0,0.616806,79.4579,313.727)"><path d="M30.982,62.05C31.42,62.05 31.775,61.695 31.776,61.257C31.776,61.257 31.782,57.938 31.787,55.226C31.789,54.099 31.342,53.017 30.546,52.219C29.749,51.421 28.668,50.972 27.54,50.972C25.383,50.972 22.616,50.972 20.458,50.972C19.33,50.972 18.249,51.421 17.452,52.219C16.656,53.017 16.209,54.099 16.211,55.227C16.217,57.939 16.223,61.257 16.223,61.257C16.224,61.695 16.579,62.05 17.017,62.05L30.982,62.05ZM30.189,60.461L17.81,60.461C17.81,60.461 17.8,55.224 17.8,55.224C17.798,54.518 18.078,53.84 18.576,53.341C19.075,52.841 19.752,52.56 20.458,52.56L27.54,52.56C28.246,52.56 28.923,52.841 29.422,53.341C29.92,53.84 30.2,54.517 30.198,55.223L30.189,60.461Z"/></g><g transform="matrix(0.616806,0,0,0.616806,91.2768,313.727)"><path d="M30.982,62.05C31.42,62.05 31.775,61.695 31.776,61.257C31.776,61.257 31.782,57.938 31.787,55.226C31.789,54.099 31.342,53.017 30.546,52.219C29.749,51.421 28.668,50.972 27.54,50.972C25.383,50.972 22.616,50.972 20.458,50.972C19.33,50.972 18.249,51.421 17.452,52.219C16.656,53.017 16.209,54.099 16.211,55.227C16.217,57.939 16.223,61.257 16.223,61.257C16.224,61.695 16.579,62.05 17.017,62.05L30.982,62.05ZM30.189,60.461L17.81,60.461C17.81,60.461 17.8,55.224 17.8,55.224C17.798,54.518 18.078,53.84 18.576,53.341C19.075,52.841 19.752,52.56 20.458,52.56L27.54,52.56C28.246,52.56 28.923,52.841 29.422,53.341C29.92,53.84 30.2,54.517 30.198,55.223L30.189,60.461Z"/></g><g transform="matrix(0.616806,0,0,0.616806,103.096,313.727)"><path d="M30.982,62.05C31.42,62.05 31.775,61.695 31.776,61.257C31.776,61.257 31.782,57.938 31.787,55.226C31.789,54.099 31.342,53.017 30.546,52.219C29.749,51.421 28.668,50.972 27.54,50.972C25.383,50.972 22.616,50.972 20.458,50.972C19.33,50.972 18.249,51.421 17.452,52.219C16.656,53.017 16.209,54.099 16.211,55.227C16.217,57.939 16.223,61.257 16.223,61.257C16.224,61.695 16.579,62.05 17.017,62.05L30.982,62.05ZM30.189,60.461L17.81,60.461C17.81,60.461 17.8,55.224 17.8,55.224C17.798,54.518 18.078,53.84 18.576,53.341C19.075,52.841 19.752,52.56 20.458,52.56L27.54,52.56C28.246,52.56 28.923,52.841 29.422,53.341C29.92,53.84 30.2,54.517 30.198,55.223L30.189,60.461Z"/></g><g transform="matrix(0.616806,0,0,0.616806,114.915,313.727)"><path d="M30.982,62.05C31.42,62.05 31.775,61.695 31.776,61.257C31.776,61.257 31.782,57.938 31.787,55.226C31.789,54.099 31.342,53.017 30.546,52.219C29.749,51.421 28.668,50.972 27.54,50.972C25.383,50.972 22.616,50.972 20.458,50.972C19.33,50.972 18.249,51.421 17.452,52.219C16.656,53.017 16.209,54.099 16.211,55.227C16.217,57.939 16.223,61.257 16.223,61.257C16.224,61.695 16.579,62.05 17.017,62.05L30.982,62.05ZM30.189,60.461L17.81,60.461C17.81,60.461 17.8,55.224 17.8,55.224C17.798,54.518 18.078,53.84 18.576,53.341C19.075,52.841 19.752,52.56 20.458,52.56L27.54,52.56C28.246,52.56 28.923,52.841 29.422,53.341C29.92,53.84 30.2,54.517 30.198,55.223L30.189,60.461Z"/></g><g transform="matrix(0.979592,0,0,0.979592,2.28061,6.69388)"><path d="M88.079,321.446C87.89,321.712 87.786,322.033 87.786,322.364C87.787,322.785 87.954,323.188 88.252,323.486L89.112,324.347C88.63,324.367 88.181,324.605 87.896,324.997C87.597,325.407 87.512,325.935 87.667,326.418C87.952,327.306 88.308,328.414 88.54,329.137C88.75,329.794 89.361,330.239 90.051,330.239L90.994,330.239L90.994,337.117L88.579,337.117C88.302,337.117 88.079,337.341 88.079,337.617L88.079,340.544C88.079,340.82 88.302,341.044 88.579,341.044L90.889,341.044C90.805,341.321 90.76,341.615 90.76,341.92C90.76,343.586 92.113,344.939 93.779,344.939C95.234,344.939 96.45,343.907 96.734,342.536C97.011,342.346 97.341,342.243 97.681,342.243L102.141,342.243C102.394,342.243 102.641,342.3 102.864,342.407C103.098,343.842 104.344,344.939 105.844,344.939C107.285,344.939 108.492,343.926 108.791,342.574C109.079,342.36 109.429,342.243 109.792,342.243L114.251,342.243C114.486,342.243 114.715,342.292 114.926,342.385C115.15,343.83 116.401,344.939 117.909,344.939C119.379,344.939 120.605,343.885 120.873,342.493C121.136,342.33 121.44,342.243 121.753,342.243L126.213,342.243C126.49,342.243 126.76,342.311 127,342.439C127.247,343.858 128.485,344.939 129.974,344.939C131.64,344.939 132.993,343.586 132.993,341.92C132.993,341.615 132.948,341.321 132.863,341.044L135.409,341.044C135.685,341.044 135.909,340.82 135.909,340.544L135.909,337.617C135.909,337.341 135.685,337.117 135.409,337.117L126.839,337.117C126.593,335.699 125.354,334.619 123.866,334.619C122.37,334.619 121.127,335.709 120.888,337.137L114.878,337.118C114.632,335.699 113.393,334.619 111.904,334.619C110.415,334.619 109.177,335.699 108.93,337.117L102.767,337.117C102.52,335.699 101.282,334.619 99.793,334.619C99.338,334.619 98.906,334.72 98.519,334.901L98.519,330.239L99.462,330.239C100.151,330.239 100.762,329.794 100.973,329.137L101.065,328.851C101.125,328.877 101.192,328.891 101.262,328.891L133.409,328.891C134.072,328.891 134.708,328.628 135.177,328.159C135.646,327.69 135.909,327.054 135.909,326.391L135.909,306C135.909,305.337 135.646,304.701 135.177,304.232C134.708,303.763 134.072,303.5 133.409,303.5C125.739,303.5 98.249,303.5 90.579,303.5C89.916,303.5 89.28,303.763 88.811,304.232C88.342,304.701 88.079,305.337 88.079,306L88.079,321.446ZM117.909,339.901C119.023,339.901 119.928,340.806 119.928,341.92C119.928,343.034 119.023,343.939 117.909,343.939C116.795,343.939 115.89,343.034 115.89,341.92C115.89,340.806 116.795,339.901 117.909,339.901ZM105.844,339.901C106.958,339.901 107.862,340.806 107.862,341.92C107.862,343.034 106.958,343.939 105.844,343.939C104.73,343.939 103.825,343.034 103.825,341.92C103.825,340.806 104.73,339.901 105.844,339.901ZM129.974,339.901C131.088,339.901 131.993,340.806 131.993,341.92C131.993,343.034 131.088,343.939 129.974,343.939C128.86,343.939 127.955,343.034 127.955,341.92C127.955,340.806 128.86,339.901 129.974,339.901ZM93.779,339.901C94.893,339.901 95.797,340.806 95.797,341.92C95.797,343.034 94.893,343.939 93.779,343.939C92.665,343.939 91.76,343.034 91.76,341.92C91.76,340.806 92.665,339.901 93.779,339.901ZM96.813,338.117C95.182,338.117 89.079,338.117 89.079,338.117C89.079,338.117 89.079,340.044 89.079,340.044L91.414,340.044C91.968,339.348 92.821,338.901 93.779,338.901C95.27,338.901 96.511,339.986 96.754,341.408C97.048,341.3 97.362,341.243 97.681,341.243C99.04,341.243 100.782,341.243 102.141,341.243C102.393,341.243 102.642,341.278 102.88,341.347C103.148,339.954 104.374,338.901 105.844,338.901C107.341,338.901 108.585,339.994 108.822,341.425C109.128,341.305 109.457,341.243 109.792,341.243C111.15,341.243 112.893,341.243 114.251,341.243C114.488,341.243 114.722,341.274 114.947,341.335C115.22,339.948 116.443,338.901 117.909,338.901C119.394,338.901 120.63,339.976 120.881,341.389C121.159,341.293 121.454,341.243 121.753,341.243C123.112,341.243 124.854,341.243 126.213,341.243C126.485,341.243 126.752,341.284 127.007,341.363C127.268,339.963 128.498,338.901 129.974,338.901C130.939,338.901 131.799,339.355 132.352,340.061C132.394,340.05 132.437,340.044 132.482,340.044C132.482,340.044 134.909,340.044 134.909,340.044C134.909,340.044 134.909,338.117 134.909,338.117L126.846,338.117C126.616,339.556 125.368,340.656 123.866,340.656C122.37,340.656 121.127,339.566 120.888,338.137L114.884,338.118C114.654,339.556 113.406,340.656 111.904,340.656C110.401,340.656 109.153,339.556 108.923,338.117L102.774,338.117C102.544,339.556 101.296,340.656 99.793,340.656C98.291,340.656 97.043,339.556 96.813,338.117ZM99.793,335.619C100.908,335.619 101.812,336.523 101.812,337.637C101.812,338.752 100.908,339.656 99.793,339.656C98.679,339.656 97.775,338.752 97.775,337.637C97.775,336.523 98.679,335.619 99.793,335.619ZM109.886,337.696C109.917,338.783 110.809,339.656 111.904,339.656C113.018,339.656 113.923,338.752 113.923,337.637C113.923,336.523 113.018,335.619 111.904,335.619C110.821,335.619 109.935,336.474 109.887,337.546C109.891,337.569 109.892,337.593 109.892,337.617C109.892,337.644 109.89,337.67 109.886,337.696ZM123.866,335.619C124.98,335.619 125.884,336.523 125.884,337.637C125.884,338.752 124.98,339.656 123.866,339.656C122.751,339.656 121.847,338.752 121.847,337.637C121.847,336.523 122.751,335.619 123.866,335.619ZM97.519,335.654L97.519,330.239L91.994,330.239L91.994,337.117L96.82,337.117C96.916,336.563 97.164,336.06 97.519,335.654ZM89.178,325.345L100.334,325.345C100.522,325.345 100.698,325.435 100.809,325.587C100.92,325.738 100.951,325.934 100.894,326.112L100.021,328.831C99.943,329.074 99.717,329.239 99.462,329.239C99.462,329.239 90.051,329.239 90.051,329.239C89.796,329.239 89.57,329.074 89.492,328.831L88.619,326.112C88.562,325.934 88.593,325.738 88.704,325.587C88.814,325.435 88.991,325.345 89.178,325.345ZM101.373,327.891L133.409,327.891C133.807,327.891 134.189,327.733 134.47,327.452C134.751,327.17 134.909,326.789 134.909,326.391C134.909,326.391 134.909,306 134.909,306C134.909,305.602 134.751,305.221 134.47,304.939C134.189,304.658 133.807,304.5 133.409,304.5L90.579,304.5C90.181,304.5 89.799,304.658 89.518,304.939C89.237,305.221 89.079,305.602 89.079,306L89.079,320.414L89.202,320.291C89.397,320.096 89.714,320.096 89.909,320.291C90.104,320.486 90.104,320.803 89.909,320.998L88.959,321.948C88.848,322.058 88.786,322.208 88.786,322.364C88.786,322.519 88.848,322.669 88.959,322.779L90.525,324.345L90.727,324.345L90.722,321.798C90.72,321.202 90.956,320.63 91.378,320.208C91.799,319.786 92.37,319.549 92.966,319.549C94.057,319.549 95.456,319.549 96.546,319.549C97.142,319.549 97.714,319.786 98.135,320.208C98.556,320.63 98.792,321.202 98.791,321.798L98.787,324.345L100.334,324.345C100.841,324.345 101.318,324.588 101.617,324.997C101.916,325.407 102.001,325.935 101.846,326.418L101.373,327.891ZM97.787,324.345L97.791,321.796C97.792,321.466 97.661,321.148 97.427,320.914C97.194,320.68 96.877,320.549 96.546,320.549L92.966,320.549C92.636,320.549 92.319,320.68 92.085,320.914C91.852,321.148 91.721,321.466 91.722,321.796C91.722,321.796 91.727,324.345 91.727,324.345L92.154,324.345L92.154,322.694C92.154,322.418 92.378,322.194 92.654,322.194C92.93,322.194 93.154,322.418 93.154,322.694L93.154,324.345L96.197,324.345L96.197,322.694C96.197,322.418 96.421,322.194 96.697,322.194C96.973,322.194 97.197,322.418 97.197,322.694L97.197,324.345L97.787,324.345Z"/></g></g><text x="0" y="71" fill="#000000" font-size="5px" font-weight="bold" font-family="'Helvetica Neue', Helvetica, Arial-Unicode, Arial, Sans-serif">Created by arif subekti</text><text x="0" y="76" fill="#000000" font-size="5px" font-weight="bold" font-family="'Helvetica Neue', Helvetica, Arial-Unicode, Arial, Sans-serif">from the Noun Project</text></svg>