<svg xmlns="http://www.w3.org/2000/svg" xmlns:xlink="http://www.w3.org/1999/xlink" version="1.1" x="0px" y="0px" viewBox="0 0 128 160" style="enable-background:new 0 0 128 128;" xml:space="preserve"><rect style="" width="128" height="128" fill="none"/><path d="M122.721,79l-5.751-17.243l-2-8l-0.521,0.13c1.438-2.001,2.038-4.549,1.542-7.028c-1.945-9.726-7.15-18.591-14.672-25.044  c1.058-1.69,1.68-3.679,1.68-5.815c0-6.065-4.935-11-11-11S81,9.935,81,16c0,4.956,3.296,9.154,7.81,10.525l-3.67,12.847  l-11.694,7.796c-0.036,0.024-0.058,0.059-0.089,0.087c-0.019,0.016-0.045,0.02-0.063,0.038L61.586,59H50.479  C52.053,57.097,53,54.657,53,52c0-6.065-4.935-11-11-11s-11,4.935-11,11c0,3.317,1.482,6.288,3.811,8.307l-5.944,15.454  c-1.022,2.657-0.746,5.567,0.758,7.984c0.42,0.674,0.922,1.272,1.482,1.8l-5.9,9.834l-9.913,9.913c-0.391,0.391-0.391,1.023,0,1.414  l6,6C21.488,112.902,21.744,113,22,113s0.512-0.098,0.707-0.293l12-12c0.047-0.047,0.088-0.098,0.125-0.152l8-12l-0.035-0.024  L47,88.913V99h-3c-0.315,0-0.611,0.148-0.8,0.4l-11.78,15.707l-25.645,5.918C5.321,121.13,5,121.534,5,122v2h2v-1.204l25.226-5.821  c0.229-0.054,0.434-0.186,0.575-0.375L44.5,101H48h10h6c0.284,0,0.554-0.12,0.743-0.331L82.445,81H86h12h14h10h2v-2H122.721z M83,16  c0-4.962,4.038-9,9-9s9,4.038,9,9s-4.038,9-9,9S83,20.962,83,16z M33,52c0-4.962,4.038-9,9-9s9,4.038,9,9s-4.038,9-9,9  S33,56.962,33,52z M33.223,99.363L22,110.586L17.414,106l9.293-9.293c0.058-0.058,0.108-0.123,0.15-0.192l5.857-9.761  c1.123,0.658,2.389,1.078,3.738,1.201l4.126,0.375L33.223,99.363z M49,99V88c0-0.517-0.395-0.949-0.91-0.996l-11.457-1.042  c-2.205-0.2-4.141-1.394-5.31-3.274c-1.169-1.88-1.384-4.144-0.589-6.21l5.758-14.972C38.114,62.45,39.992,63,42,63  c2.346,0,4.517-0.744,6.305-2H62c0.265,0,0.52-0.105,0.707-0.293l11.019-11.019l3.083,6.165L65.505,69.041L43.91,71.004l0.181,1.992  l2.602-0.237l-1.641,4.924c-0.092,0.278-0.059,0.582,0.092,0.832c0.151,0.251,0.404,0.423,0.692,0.471l8.658,1.443  C55.946,80.671,57,81.916,57,83.389V99H49z M82,79c-0.284,0-0.554,0.12-0.743,0.331L63.555,99H59V83.389  c0-2.455-1.757-4.529-4.178-4.932l-7.503-1.25l1.548-4.644l17.223-1.566c0.26-0.024,0.5-0.147,0.669-0.345L78.66,56.767l15.87-9.919  c0.156-0.098,0.282-0.236,0.365-0.401l0.791-1.582l1.224,4.897l-7.69,9.613c-0.1,0.125-0.168,0.271-0.2,0.428L85.18,79H82z   M87.22,79l3.713-18.565l7.848-9.81c0.195-0.244,0.265-0.564,0.189-0.867l-1.91-7.641l1.835-3.669l-1.789-0.895l-3.874,7.749  l-14.829,9.268l-3.114-6.227l11.265-7.51c0.197-0.132,0.342-0.329,0.407-0.557l3.814-13.347C91.178,26.972,91.586,27,92,27  c3.21,0,6.093-1.39,8.106-3.59c7.136,6.156,12.074,14.591,13.925,23.843c0.525,2.628-0.521,5.365-2.664,6.973L99.4,63.2  c-0.217,0.163-0.358,0.407-0.392,0.676L97.117,79H87.22z M105.244,61.317l1.776,8.879c0.012,0.06,0.029,0.118,0.052,0.175  L110.523,79h-11.39l1.807-14.455L105.244,61.317z M112.677,79l-3.715-9.286l-1.945-9.727l5.55-4.162  c0.252-0.189,0.478-0.402,0.705-0.613l1.779,7.105L120.613,79H112.677z"/><path d="M6,21h38c0.552,0,1-0.448,1-1c0-6.065-4.935-11-11-11c-1.09,0-2.192,0.177-3.284,0.526C27.896,6.642,24.029,5,20,5  C11.729,5,5,11.729,5,20C5,20.552,5.448,21,6,21z M20,7c3.684,0,7.214,1.586,9.686,4.352c0.276,0.31,0.718,0.417,1.104,0.267  C31.861,11.208,32.941,11,34,11c4.625,0,8.446,3.506,8.945,8H7.038C7.55,12.297,13.168,7,20,7z"/><rect x="36" y="27" width="2" height="2"/><rect x="44" y="27" width="2" height="2"/><rect x="52" y="27" width="2" height="2"/><text x="0" y="143" fill="#000000" font-size="5px" font-weight="bold" font-family="'Helvetica Neue', Helvetica, Arial-Unicode, Arial, Sans-serif">Created by Becris</text><text x="0" y="148" fill="#000000" font-size="5px" font-weight="bold" font-family="'Helvetica Neue', Helvetica, Arial-Unicode, Arial, Sans-serif">from the Noun Project</text></svg>